<svg width="430" height="430" viewBox="0 0 430 430" fill="none" xmlns="http://www.w3.org/2000/svg">
<path d="M142.49 24.7463C131.03 36.2068 128.946 39.3324 137.802 30.9975C146.658 23.1835 155.514 16.9323 157.077 16.9323C158.639 16.9323 158.639 23.1835 156.556 30.9975C153.951 41.4162 145.095 49.7511 126.862 59.6488C112.797 67.4628 98.7321 73.1931 95.0856 71.6303C91.4391 70.5884 87.2716 71.6303 85.7088 74.2349C83.6251 77.3605 75.8111 79.4443 66.9552 79.4443C53.411 79.4443 51.8482 81.0071 51.8482 95.0722C51.8482 109.137 53.411 110.7 66.9552 110.7C78.4158 110.7 82.5832 108.096 84.146 100.282C86.2297 86.7373 149.784 49.7511 153.43 60.1698C154.993 63.8163 155.514 115.91 154.993 175.817L153.43 284.692L132.593 296.673C108.63 310.217 111.755 310.738 171.663 301.883C198.23 297.715 226.882 289.38 243.551 281.045C277.412 263.334 278.975 266.459 246.156 285.734C230.528 294.589 206.565 302.403 180.519 306.571C157.598 310.217 138.323 314.385 136.76 315.427C135.718 316.99 133.114 334.701 131.551 355.018C128.425 390.441 128.946 392.004 139.886 392.004C149.784 392.004 150.825 389.399 150.825 360.748C150.825 332.618 151.867 329.492 161.765 329.492C171.663 329.492 172.705 332.097 170.621 360.748C169.058 387.836 170.1 392.004 178.435 392.004C185.728 392.004 187.291 386.795 187.291 358.143C187.291 325.325 187.812 324.283 200.835 324.283C214.379 324.283 214.379 324.804 212.295 358.143L210.212 392.004H232.612C244.593 392.004 256.054 394.088 257.617 397.213C259.7 400.86 224.798 402.423 157.598 402.943C50.2854 402.943 0.275852 407.632 26.3225 414.404C63.8296 424.302 217.505 429.511 303.98 423.781C352.947 420.655 398.789 416.488 406.082 414.404C417.543 411.278 415.98 410.237 395.664 405.548L372.222 399.818V293.027V186.235L385.245 187.798C397.747 189.882 397.227 188.84 378.994 169.566C361.803 151.854 359.198 146.124 359.198 124.765C359.198 103.928 357.115 99.2397 347.738 95.5932C340.966 92.9885 335.236 92.9885 334.194 95.0722C331.589 102.365 179.477 34.6441 177.914 25.2673C176.351 17.9742 183.644 20.0579 213.337 35.165C234.175 45.5836 251.886 53.3976 252.407 52.3558C253.449 51.3139 233.654 39.8534 208.649 27.351L162.807 3.90902L142.49 24.7463ZM208.128 56.0023C213.858 62.7744 213.337 63.2954 206.044 60.6907C201.356 59.1279 197.709 55.4814 197.709 52.8767C197.709 46.1046 200.835 47.1464 208.128 56.0023ZM174.267 95.5932C174.788 133.1 172.184 152.375 166.974 152.375C161.244 152.375 161.765 135.184 168.016 127.37C171.142 123.724 171.142 121.119 168.016 121.119C162.286 121.119 162.286 79.9652 168.016 70.5884C170.1 67.4628 169.058 63.2954 166.453 62.2535C163.328 60.6907 163.849 60.1698 167.495 60.6907C171.663 61.7326 174.267 73.1931 174.267 95.5932ZM247.719 87.2583C278.975 100.282 310.752 110.7 319.087 110.7C326.901 110.7 333.152 113.305 333.152 116.43C333.152 119.035 331.068 120.598 328.463 118.514C325.338 116.951 308.668 119.556 290.435 124.765C264.389 132.579 252.407 139.872 226.361 164.356C193.542 196.133 192.5 195.612 244.593 179.984C257.096 176.338 265.431 175.296 262.826 177.901C259.7 180.505 249.282 184.673 239.384 187.277L221.151 191.966L218.547 228.431L215.942 264.375L199.272 265.938L182.081 267.501V165.919C182.081 109.658 184.165 63.8163 186.77 63.8163C189.374 63.8163 216.984 74.2349 247.719 87.2583ZM282.621 86.7373C287.31 90.3839 291.477 95.5932 291.477 97.6769C291.477 100.282 287.31 98.1978 282.1 93.5094C276.891 88.3001 270.64 86.2164 269.077 88.3001C266.993 89.8629 265.431 88.8211 265.431 85.6955C265.431 77.8815 271.161 77.8815 282.621 86.7373ZM171.663 173.212C171.663 175.817 169.579 178.421 166.453 178.421C163.849 178.421 161.244 175.817 161.244 173.212C161.244 170.087 163.849 168.003 166.453 168.003C169.579 168.003 171.663 170.087 171.663 173.212ZM173.746 191.445C170.621 199.78 161.244 202.384 161.244 195.091C161.244 189.361 166.974 183.631 172.184 183.631C174.788 183.631 175.309 187.277 173.746 191.445ZM171.663 206.552C171.663 208.115 169.579 210.719 166.453 212.282C163.849 213.845 161.244 212.803 161.244 210.198C161.244 207.073 163.849 204.468 166.453 204.468C169.579 204.468 171.663 205.51 171.663 206.552ZM255.012 217.491C255.012 225.826 251.886 230.515 247.198 230.515C239.384 230.515 236.258 214.366 243.03 208.115C249.803 200.822 255.012 204.989 255.012 217.491ZM338.361 230.515V254.999H318.045H297.728V229.994L297.207 204.989L318.045 205.51H338.361V230.515ZM173.746 236.766C173.225 249.268 172.705 263.334 172.184 268.022C171.663 273.231 169.579 277.399 167.495 277.399C160.723 277.399 161.765 259.687 168.537 254.999C172.184 252.915 172.705 249.789 169.058 247.185C159.16 239.892 161.765 223.743 174.788 214.887C174.788 214.887 174.267 224.784 173.746 236.766ZM255.012 246.143C255.012 251.873 251.365 256.561 247.198 256.561C243.03 256.561 239.384 251.873 239.384 246.143C239.384 240.412 243.03 235.724 247.198 235.724C251.365 235.724 255.012 240.412 255.012 246.143ZM312.315 326.887C312.315 336.264 309.71 339.911 301.896 339.911C291.477 339.911 287.31 325.325 295.124 317.511C302.938 309.176 312.315 314.385 312.315 326.887ZM338.361 326.887C338.361 336.264 335.756 339.911 327.942 339.911C320.129 339.911 317.524 336.264 317.524 326.887C317.524 317.511 320.129 313.864 327.942 313.864C335.756 313.864 338.361 317.511 338.361 326.887ZM312.315 358.664C312.315 375.855 295.124 374.292 292.519 356.58C290.956 347.725 293.561 345.12 301.375 345.12C309.71 345.12 312.315 348.246 312.315 358.664ZM338.361 358.143C338.361 367.52 335.756 371.167 327.942 371.167C320.129 371.167 317.524 367.52 317.524 358.143C317.524 348.766 320.129 345.12 327.942 345.12C335.756 345.12 338.361 348.766 338.361 358.143Z" fill="#0061A4"/>
<path d="M51.8457 207.072C51.8457 216.449 54.4504 220.096 62.2644 220.096C70.0783 220.096 72.683 216.449 72.683 207.072C72.683 197.696 70.0783 194.049 62.2644 194.049C54.4504 194.049 51.8457 197.696 51.8457 207.072Z" fill="#0061A4"/>
<circle cx="26.8785" cy="19.5817" r="0.663692" fill="#0061A4"/>
</svg>
